<svg width="34" height="77" viewBox="0 0 34 77" fill="none" xmlns="http://www.w3.org/2000/svg">
<rect y="13.1795" width="34" height="50.641" rx="17" fill="#D9D9D9"/>
<rect x="14.875" y="18.3077" width="4.25" height="9.61539" rx="2.125" fill="white"/>
<path d="M16.2929 76.7072C16.6834 77.0978 17.3166 77.0978 17.7071 76.7072L24.0711 70.3433C24.4616 69.9528 24.4616 69.3196 24.0711 68.9291C23.6805 68.5385 23.0474 68.5385 22.6569 68.9291L17 74.5859L11.3431 68.9291C10.9526 68.5385 10.3195 68.5385 9.92893 68.9291C9.53841 69.3196 9.53841 69.9528 9.92893 70.3433L16.2929 76.7072ZM16 76V76.0001H18V76H16Z" fill="#D9D9D9"/>
<path d="M17.7071 0.292893C17.3166 -0.0976311 16.6834 -0.0976311 16.2929 0.292893L9.92893 6.65685C9.53841 7.04738 9.53841 7.68054 9.92893 8.07107C10.3195 8.46159 10.9526 8.46159 11.3431 8.07107L17 2.41421L22.6569 8.07107C23.0474 8.46159 23.6805 8.46159 24.0711 8.07107C24.4616 7.68054 24.4616 7.04738 24.0711 6.65685L17.7071 0.292893ZM16 1V1.0001H18V1L16 1Z" fill="#D9D9D9"/>
</svg>
